<svg id="Layer_1" data-name="Layer 1" xmlns="http://www.w3.org/2000/svg" viewBox="0 0 374.64 235.16"><defs><style>.cls-1{fill:#f4b21d;}.cls-2{fill:#354cbc;}</style></defs><path class="cls-1" d="M170.75,47.25q18.06,51.42,36.13,102.85c9.22,26.31,18.49,52.6,27.44,79,1.56,4.59,3.75,6.1,8.48,6,15.1-.29,30.22-.37,45.31,0,5.35.14,7.25-2.1,8.84-6.71Q327.9,138.8,359.13,49.23c4.74-13.63,9.19-27.39,14.39-40.84,2.63-6.81.59-8-5.8-7.84-14.11.35-28.24.37-42.35,0-5.55-.16-8.16,1.42-10.06,7C299.84,52.72,284,97.82,268.26,143c-.71,2-.84,4.4-3.34,6.28-5.49-15.68-11-31.13-16.33-46.61-11.12-32-22.28-63.94-33.2-96C213.87,2.16,211.76.56,207,.53,189.67.42,172.38-.69,155.08.69Z"/><path class="cls-2" d="M170.75,47.25,155.08.69Q110.5.63,65.91.59c-27.3,0-44.13,14.9-54.27,39C4.7,56.12,2.14,73.64,1,91.36c-1.85,29.2-1.69,58.34,5.07,87,3.89,16.5,10.28,31.78,23.32,43.32,9.06,8,19.65,12.76,31.73,12.83,44.09.25,88.18.16,132.28.33,3.9,0,5.15-1.27,5.09-5.14-.18-11.72-.31-23.45.06-35.16.16-5.25-1.45-6.7-6.65-6.67-39.39.21-78.77.11-118.16.11-14.87,0-17-1.4-21.19-16.06-6.17-21.87-6.32-44.33-5.6-66.8.48-15,1.49-29.91,6.42-44.24,4.26-12.36,5.91-13.48,18.53-13.5Z"/><path class="cls-2" d="M131.32,95.24c-1.93-1.65-4.25-1-6.41-1-19.52,0-39,.18-58.56-.16-5.65-.1-7.2,1.66-7,7.19.4,11.43.13,22.88.12,34.32,0,2.79-.35,5.67,3.85,5.6,22.45-.38,44.91.8,67.35-.62.22,0,.42-.23.63-.36Q131.3,117.71,131.32,95.24Z"/><path class="cls-1" d="M131.32,95.24q0,22.47,0,44.94c13.72,2.41,27.55.58,41.31,1,3.16.1,3.15-2.48,3.15-4.8q0-18.66,0-37.32c0-2.31,0-4.9-3.15-4.8C158.84,94.67,145,92.84,131.32,95.24Z"/></svg>