<svg id="Layer_1" data-name="Layer 1" xmlns="http://www.w3.org/2000/svg" viewBox="0 0 448.89 466.38"><defs><style>.cls-1{fill:#9ae69a;stroke:#5b5b5b;stroke-miterlimit:10;}</style></defs><path class="cls-1" d="M151.42.7,121.88,40.36,160,69.13a76.76,76.76,0,0,0-6.22,31.11H303.05c0-10.83-1.58-21.18-5.44-30.33l38.88-28.77L306.94.7,262.62,34.14A74.22,74.22,0,0,0,195,33.36ZM124.91,125.12c-13.79,0-25.95,16.88-35,44.32l-60.65-35L4.39,177.22,78.26,220a425.93,425.93,0,0,0-3.11,54.43H.5v49.76H78.26a206.47,206.47,0,0,0,14,51.32l-64.54,49L58,464.15l61.43-46.66c22.18,23.12,50.79,35.74,80.09,45.88V274.42h49.77V465.7c35.92-10.88,64.28-22.66,84.76-44.32l57.54,43.55L422,426.05l-62.2-48.21c5.45-15,8.62-32.55,10.88-53.66h77.76V274.42H373.74a421.23,421.23,0,0,0-3.88-56l72.31-42L417.29,132.9l-59.1,34.21c-9-26-20.83-42-34.21-42Z"/></svg>