<svg id="Layer_1" data-name="Layer 1" xmlns="http://www.w3.org/2000/svg" viewBox="0 0 600 597.35"><defs><style>.cls-1{fill:#469146;fill-rule:evenodd;}</style></defs><path class="cls-1" d="M600,178.14a24.33,24.33,0,0,0-12.13-21.52L338.06,10.12A73.66,73.66,0,0,0,263.7,10L12.31,156.58A24.33,24.33,0,0,0,.13,178.14H0V425.8H.14a24.3,24.3,0,0,0,12.53,20.73l252.1,141.4a73.63,73.63,0,0,0,72.23-.09L587.51,446.5A24.33,24.33,0,0,0,600,425.8ZM58.82,196.92A12.5,12.5,0,0,0,46.53,218.7l212,119.59a86.17,86.17,0,0,0,85.05-.21L552.8,218.67A12.5,12.5,0,0,0,540.41,197L331.14,316.37a61.16,61.16,0,0,1-60.36.15Z"/></svg>