<svg id="hardware-16px" xmlns="http://www.w3.org/2000/svg" viewBox="0 0 800 800"><defs><style>.cls-1{fill:#469146;}.cls-2{fill:#eadc2d;}</style></defs><rect class="cls-1" x="26" y="44" width="737" height="722"/><path id="Path_94" data-name="Path 94" class="cls-2" d="M725,0H75A75,75,0,0,0,0,75V725a75,75,0,0,0,75,75H725a75,75,0,0,0,75-75h0V75A75,75,0,0,0,725,0Zm0,750H250V725a25,25,0,0,0-50,0v25H150V625a25,25,0,0,0-50,0V750H75a25,25,0,0,1-25-25V75A25,25,0,0,1,75,50H300V475a25,25,0,0,0,25,25h79.6a75,75,0,1,0,0-50H350V50H725a25,25,0,0,1,25,25v25H625a25,25,0,0,0,0,50H750v50H675a25,25,0,0,0,0,50h75v50H500V245.4a75,75,0,1,0-50,0V325a25,25,0,0,0,25,25H750V725A25,25,0,0,1,725,750ZM450,475a25,25,0,1,1,25,25A25,25,0,0,1,450,475Zm0-300a25,25,0,1,1,25,25A25,25,0,0,1,450,175ZM625,550a75,75,0,0,0-70.4,50H285.35L200,514.65V245.4a75,75,0,1,0-50,0V525a25,25,0,0,0,7.3,17.7l100,100A25,25,0,0,0,275,650H554.6A75,75,0,1,0,625,550ZM175,150a25,25,0,1,1-25,25A25,25,0,0,1,175,150ZM625,650a25,25,0,1,1,25-25A25,25,0,0,1,625,650Z"/></svg>