<svg id="Layer_1" data-name="Layer 1" xmlns="http://www.w3.org/2000/svg" viewBox="0 0 784.67 784.67"><defs><style>.cls-1{fill:#666;}</style></defs><path class="cls-1" d="M423.52,552.29,616.67,745.43c20,20,30,30,41.15,34.62a60.71,60.71,0,0,0,46.46,0c11.15-4.62,21.15-14.62,41.15-34.62s30-30,34.62-41.15a60.71,60.71,0,0,0,0-46.46c-4.62-11.15-14.62-21.16-34.62-41.15L552.29,423.52l59-59c60.38-60.38,90.57-90.58,83.44-123s-47.19-47.21-127.32-76.73L300.16,66.34C140.31,7.45,60.39-22,19.2,19.2s-11.75,121.11,47.14,281L164.8,567.39c29.52,80.13,44.28,120.2,76.73,127.32s62.64-23.06,123-83.44Z"/></svg>