<svg id="Layer_1" data-name="Layer 1" xmlns="http://www.w3.org/2000/svg" viewBox="0 0 498.98 501.02"><defs><style>.cls-1{fill:#4d91ff;}</style></defs><path class="cls-1" d="M0,0V501H499V0ZM435.69,140.8c-5.2,13.46-9.65,27.21-14.39,40.85q-31.14,89.6-62.19,179.22c-1.58,4.6-3.48,6.85-8.83,6.71-15.09-.41-30.21-.33-45.31,0-4.73.09-6.92-1.42-8.48-6-8.95-26.4-18.22-52.69-27.44-79q-18-51.43-36.13-102.84l-98.84.16c-12.62,0-14.27,1.14-18.53,13.5-4.93,14.32-5.94,29.27-6.42,44.24-.72,22.47-.57,44.93,5.6,66.79,4.15,14.67,6.32,16.07,21.19,16.07,39.39,0,78.77.09,118.16-.11,5.2,0,6.81,1.42,6.64,6.67-.36,11.71-.23,23.44-.05,35.16.06,3.87-1.19,5.15-5.09,5.14-44.1-.17-88.19-.08-132.28-.33-12.08-.07-22.67-4.82-31.73-12.83-13-11.54-19.43-26.82-23.32-43.32-6.76-28.69-6.92-57.83-5.07-87,1.13-17.72,3.69-35.24,10.63-51.75,10.14-24.12,27-39,54.27-39q44.6,0,89.17.1c17.3-1.39,34.59-.28,51.88-.17,4.8,0,6.91,1.64,8.43,6.11,10.92,32,22.08,64,33.2,96,5.38,15.47,10.84,30.93,16.33,46.61,2.5-1.88,2.63-4.24,3.34-6.29,15.75-45.12,31.58-90.22,47.05-135.45,1.9-5.54,4.51-7.12,10.06-7,14.11.4,28.24.38,42.34,0C436.28,132.81,438.32,134,435.69,140.8ZM121.52,233.66c-.2-5.54,1.35-7.29,7-7.2,1.73,0,3.47,0,5.2.06h70.87c10-.43,20.13.45,30.19.15,3.18-.1,3.15,2.49,3.15,4.8q0,18.66,0,37.32c0,2.32,0,4.9-3.15,4.8-10.68-.32-21.39.69-32.06,0H170.9q-6.66,0-13.32,0h-30.1a5.73,5.73,0,0,1-.85-.07h-1.14c-4.2.07-3.86-2.81-3.86-5.6C121.65,256.54,121.92,245.09,121.52,233.66Z"/></svg>