<svg id="Layer_1" data-name="Layer 1" xmlns="http://www.w3.org/2000/svg" xmlns:xlink="http://www.w3.org/1999/xlink" viewBox="0 0 162.2 218.43"><defs><style>.cls-1{fill:url(#linear-gradient);}.cls-2{fill:url(#linear-gradient-2);}.cls-3{fill:#161616;}.cls-4{fill:url(#linear-gradient-3);}</style><linearGradient id="linear-gradient" x1="-1137.22" y1="752.42" x2="-1137.15" y2="752.42" gradientTransform="translate(4936327.97 1005256.6) rotate(45) scale(3694.39)" gradientUnits="userSpaceOnUse"><stop offset="0" stop-color="#fbfbfb"/><stop offset="1" stop-color="#f5f6f7"/></linearGradient><linearGradient id="linear-gradient-2" x1="-1137.22" y1="752.42" x2="-1137.15" y2="752.42" gradientTransform="translate(4936327.72 1005256.85) rotate(45) scale(3694.39)" xlink:href="#linear-gradient"/><linearGradient id="linear-gradient-3" x1="-1138.91" y1="751.99" x2="-1138.84" y2="751.99" gradientTransform="translate(723721.7 -477753.84) scale(635.35)" gradientUnits="userSpaceOnUse"><stop offset="0" stop-color="#e9e9e9"/><stop offset="1" stop-color="#e3e3e3"/></linearGradient></defs><g id="Ñëîé_5" data-name="Ñëîé 5"><path class="cls-1" d="M161.74,218H.43V.51H115.75l46,46.37Z"/><path class="cls-2" d="M161.74,218H.43V.51H115.67L161.74,47.3Z"/><path class="cls-3" d="M161.74,218v-.44H.87V.51H.43V.94h115.2V.48l-.33.33,46.06,46.78.32-.32h-.45V218h.94V47.07l-.13-.13L116,.14,115.85,0H0V218.43H162.17V218Z"/><path class="cls-4" d="M161.69,47.27H115.63V.47Z"/><path class="cls-3" d="M161.74,47.31v-.48h-45.6V.51h-.48l-.33.32,46.08,46.81.33-.33h0l.33-.32L116,.18a.46.46,0,0,0-.71.07.45.45,0,0,0-.08.27V47.31a.46.46,0,0,0,.46.47h46.08a.47.47,0,0,0,.46-.47.48.48,0,0,0-.13-.32Z"/><polyline points="15.01 21.82 113.67 21.82 113.67 21.24 15.01 21.24"/><polyline points="15.01 29.51 113.67 29.51 113.67 28.93 15.01 28.93"/><polyline points="15.01 37.19 113.67 37.19 113.67 36.61 15.01 36.61"/><polyline points="15.01 44.88 113.67 44.88 113.67 44.3 15.01 44.3"/><polyline points="15.01 52.56 145.79 52.56 145.79 51.98 15.01 51.98"/><polyline points="15.01 60.24 145.79 60.24 145.79 59.66 15.01 59.66"/><polyline points="15.01 75.98 145.79 75.98 145.79 75.4 15.01 75.4"/><polyline points="15.01 68.29 145.79 68.29 145.79 67.71 15.01 67.71"/><polyline points="15.01 107.22 145.79 107.22 145.79 106.64 15.01 106.64"/><polyline points="15.01 83.81 145.79 83.81 145.79 83.23 15.01 83.23"/><polyline points="15.01 99.54 145.79 99.54 145.79 98.96 15.01 98.96"/><polyline points="15.01 91.85 145.79 91.85 145.79 91.27 15.01 91.27"/><polyline points="15.01 114.91 145.79 114.91 145.79 114.33 15.01 114.33"/><polyline points="15.01 130.64 145.79 130.64 145.79 130.06 15.01 130.06"/><polyline points="15.01 122.95 145.79 122.95 145.79 122.37 15.01 122.37"/><polyline points="15.01 161.88 145.79 161.88 145.79 161.3 15.01 161.3"/><polyline points="15.01 138.47 145.79 138.47 145.79 137.89 15.01 137.89"/><polyline points="15.01 154.2 145.79 154.2 145.79 153.62 15.01 153.62"/><polyline points="15.01 146.51 145.79 146.51 145.79 145.94 15.01 145.94"/><polyline points="15.01 169.28 145.79 169.28 145.79 168.7 15.01 168.7"/><polyline points="15.01 200.6 145.79 200.6 145.79 200.02 15.01 200.02"/><polyline points="15.01 177.18 145.79 177.18 145.79 176.6 15.01 176.6"/><polyline points="15.01 192.91 145.79 192.91 145.79 192.33 15.01 192.33"/><polyline points="15.01 185.23 145.79 185.23 145.79 184.65 15.01 184.65"/></g></svg>