<svg id="Layer_1" data-name="Layer 1" xmlns="http://www.w3.org/2000/svg" xmlns:xlink="http://www.w3.org/1999/xlink" viewBox="0 0 530.22 219.89"><defs><style>.cls-1{fill:#ffb900;}.cls-2{fill:#ffd75e;}.cls-3{fill:url(#linear-gradient);}.cls-4{fill:#fff;isolation:isolate;opacity:0.4;}.cls-5{fill:#da7b16;}.cls-6{fill:#ccc;}</style><linearGradient id="linear-gradient" x1="572.46" y1="350.26" x2="572.46" y2="152.36" gradientTransform="matrix(1, 0, 0, -1, -187.78, 372.25)" gradientUnits="userSpaceOnUse"><stop offset="0" stop-color="#fff" stop-opacity="0"/><stop offset="1" stop-color="#ffd75e" stop-opacity="0.3"/></linearGradient></defs><path class="cls-1" d="M374.36,22,359.76,6.44A20,20,0,0,0,345.17,0H250.54c-5.7,0-10.32,4.92-10.32,11V216.22a3.56,3.56,0,0,0,3.44,3.67h282a3.56,3.56,0,0,0,3.44-3.67V33c0-6.07-4.62-11-10.32-11Z"/><path class="cls-2" d="M374.36,22l-14.6,15.55A20,20,0,0,1,345.17,44h-105V216.22a3.56,3.56,0,0,0,3.44,3.67h282a3.56,3.56,0,0,0,3.44-3.67V33c0-6.07-4.62-11-10.32-11Z"/><path class="cls-3" d="M374.36,22l-14.6,15.55A20,20,0,0,1,345.17,44h-105V216.22a3.56,3.56,0,0,0,3.44,3.67h282a3.56,3.56,0,0,0,3.44-3.67V33c0-6.07-4.62-11-10.32-11Z"/><path class="cls-4" d="M240.22,44v3.66H345.47a23.36,23.36,0,0,0,17-7.51l17-18.14h-5.15l-14.6,15.55A20,20,0,0,1,345.17,44Z"/><path class="cls-5" d="M526.78,219.89h-282a3.56,3.56,0,0,1-3.44-3.67H530.22A3.56,3.56,0,0,1,526.78,219.89Z"/><polygon class="cls-6" points="0.5 33.13 133.55 109.94 0.5 186.76 0.5 33.13"/><path d="M1,34l131.55,75.95L1,185.89V34M0,32.26V187.62l134.55-77.68L0,32.26Z"/></svg>