<svg id="Layer_1" data-name="Layer 1" xmlns="http://www.w3.org/2000/svg" xmlns:xlink="http://www.w3.org/1999/xlink" viewBox="0 0 530.18 219.89"><defs><style>.cls-1{fill:#ffb900;}.cls-2{fill:#ffd75e;}.cls-3{fill:url(#linear-gradient);}.cls-4{fill:#fff;isolation:isolate;opacity:0.4;}.cls-5{fill:#da7b16;}.cls-6{fill:#ccc;}</style><linearGradient id="linear-gradient" x1="572.42" y1="350.26" x2="572.42" y2="152.36" gradientTransform="matrix(1, 0, 0, -1, -187.78, 372.25)" gradientUnits="userSpaceOnUse"><stop offset="0" stop-color="#fff" stop-opacity="0"/><stop offset="1" stop-color="#ffd75e" stop-opacity="0.3"/></linearGradient></defs><path class="cls-1" d="M374.32,22,359.73,6.44A20,20,0,0,0,345.13,0H250.5c-5.7,0-10.32,4.92-10.32,11V216.22a3.56,3.56,0,0,0,3.44,3.67h282a3.56,3.56,0,0,0,3.44-3.67V33c0-6.07-4.62-11-10.32-11Z"/><path class="cls-2" d="M374.32,22,359.73,37.54A20,20,0,0,1,345.13,44H240.18V216.22a3.56,3.56,0,0,0,3.44,3.67h282a3.56,3.56,0,0,0,3.44-3.67V33c0-6.07-4.62-11-10.32-11Z"/><path class="cls-3" d="M374.32,22,359.73,37.54A20,20,0,0,1,345.13,44H240.18V216.22a3.56,3.56,0,0,0,3.44,3.67h282a3.56,3.56,0,0,0,3.44-3.67V33c0-6.07-4.62-11-10.32-11Z"/><path class="cls-4" d="M240.18,44v3.66H345.43a23.34,23.34,0,0,0,17-7.51l17-18.14h-5.16L359.73,37.54A20,20,0,0,1,345.13,44Z"/><path class="cls-5" d="M526.74,219.89h-282a3.56,3.56,0,0,1-3.44-3.67H530.18A3.56,3.56,0,0,1,526.74,219.89Z"/><polygon class="cls-6" points="0.87 33.17 154.5 33.17 77.68 166.22 0.87 33.17"/><path d="M153.63,33.67,77.68,165.22,1.73,33.67h151.9m1.73-1H0L77.68,167.22,155.36,32.67Z"/></svg>