<svg id="Layer_1" data-name="Layer 1" xmlns="http://www.w3.org/2000/svg" viewBox="0 0 666.67 666.67"><defs><style>.cls-1{fill:#53c2f8;}</style></defs><path class="cls-1" d="M333.33,666.67C149.23,666.67,0,517.43,0,333.33S149.23,0,333.33,0,666.67,149.23,666.67,333.33,517.43,666.67,333.33,666.67Zm-23.2-117.8c21,0,44.4-9.6,73.2-48.6L413.7,459.6A11.13,11.13,0,0,0,411.44,444l-.21-.15a12.66,12.66,0,0,0-16.83,2l-49.17,56a8,8,0,0,1-9.3,2,7.05,7.05,0,0,1-4-8.14l61.94-248.2A16.64,16.64,0,0,0,374.7,227.1L263,247.53a11.7,11.7,0,0,0-9.2,8.6L251,267.27a8.33,8.33,0,0,0,6,10.14,8.75,8.75,0,0,0,2.1.26h57.66l-49.2,197.4c-1.8,7.8-4.8,21-4.8,30.6,0,22.2,13.2,43.2,47.4,43.2Zm61-351.2c23.4,0,41.4-13.8,46.2-34.8a62.26,62.26,0,0,0,1.8-13.8c0-16.8-13.2-32.4-37.8-32.4-23.4,0-41.4,13.8-46.2,34.8a62.82,62.82,0,0,0-1.8,13.8C333.33,182.07,346.53,197.67,371.13,197.67Z"/></svg>