<svg id="_2" data-name="2" xmlns="http://www.w3.org/2000/svg" viewBox="0 0 800 723.75"><defs><style>.cls-1{fill:#469146;}</style></defs><path class="cls-1" d="M166.67,28.17A28.17,28.17,0,0,0,138.52,0H128.16A28.17,28.17,0,0,0,100,28.17v77.94h66.67Z"/><path class="cls-1" d="M300,28.17A28.17,28.17,0,0,0,271.84,0H261.5a28.18,28.18,0,0,0-28.15,28.17v77.94H300V28.17Z"/><path class="cls-1" d="M433.33,28.17A28.17,28.17,0,0,0,405.17,0H394.83a28.18,28.18,0,0,0-28.15,28.17v77.94h66.65V28.17Z"/><path class="cls-1" d="M566.67,28.17A28.17,28.17,0,0,0,538.53,0H528.16A28.17,28.17,0,0,0,500,28.17v77.94h66.66Z"/><path class="cls-1" d="M100,695.58a28.17,28.17,0,0,0,28.16,28.17h10.36a28.17,28.17,0,0,0,28.15-28.17V617.67H100Z"/><path class="cls-1" d="M233.35,695.58a28.17,28.17,0,0,0,28.15,28.17h10.34A28.17,28.17,0,0,0,300,695.58V617.67H233.35v77.91Z"/><path class="cls-1" d="M366.68,695.58a28.17,28.17,0,0,0,28.15,28.17h10.34a28.17,28.17,0,0,0,28.16-28.17V617.67H366.68v77.91Z"/><path class="cls-1" d="M500,695.58a28.17,28.17,0,0,0,28.15,28.17h10.37a28.18,28.18,0,0,0,28.15-28.17V617.67H500v77.91Z"/><path class="cls-1" d="M700,28.17A28.15,28.15,0,0,0,671.83,0H661.48a28.17,28.17,0,0,0-28.14,28.17v77.94H700Z"/><path class="cls-1" d="M633.34,695.58a28.16,28.16,0,0,0,28.14,28.17h10.35A28.15,28.15,0,0,0,700,695.58V617.67H633.34Z"/><path class="cls-1" d="M262.77,311.83h-30a1.09,1.09,0,0,0-1.24,1.24v37.46a1.09,1.09,0,0,0,1.24,1.24h30c12.83,0,21.52-7.87,21.52-19.86C284.29,319.7,275.6,311.83,262.77,311.83Z"/><polygon class="cls-1" points="391.46 324.87 372.63 379.51 410.69 379.51 392.08 324.87 391.46 324.87"/><path class="cls-1" d="M0,147.77V576H800V147.77ZM310,430.63H287a3,3,0,0,1-3.1-2.08L257,373.7H232.76a1.1,1.1,0,0,0-1.23,1.25v53.6a2,2,0,0,1-2.07,2.08h-20.3a2,2,0,0,1-2.06-2.08V292a2,2,0,0,1,2.06-2.08H263.6c25.88,0,44.91,17.19,44.91,42,0,18.42-10.55,32.7-26.69,38.7l29.59,57.32A1.66,1.66,0,0,1,310,430.63Zm140.48,0h-20.3a2.49,2.49,0,0,1-2.68-2.08l-9.32-27.32h-53l-9.31,27.32a2.49,2.49,0,0,1-2.69,2.08H333.1c-1.46,0-1.88-.83-1.46-2.08L379.86,292a2.7,2.7,0,0,1,2.69-2.08H401.6a2.68,2.68,0,0,1,2.69,2.08l47.6,136.59C452.3,429.8,451.89,430.63,450.45,430.63Zm146.07-2.08a2,2,0,0,1-2.08,2.08h-18a2,2,0,0,1-2.06-2.08V342.46h-.83l-29.8,66.23a4,4,0,0,1-3.93,2.69h-12a4,4,0,0,1-3.92-2.69l-29.8-66.23h-.83v86.09a2,2,0,0,1-2.07,2.08h-18a2,2,0,0,1-2.06-2.08V292a1.94,1.94,0,0,1,2.06-2.07h18.42c1.87,0,2.91.63,3.53,2.07l38.7,86.72h.82L572.72,292c.61-1.44,1.65-2.07,3.52-2.07h18.2a2,2,0,0,1,2.08,2.07V428.55Z"/><rect class="cls-1" x="160" y="267.88" width="510" height="199"/></svg>