<svg id="Layer_1" data-name="Layer 1" xmlns="http://www.w3.org/2000/svg" viewBox="0 0 666.67 666.67"><defs><style>.cls-1,.cls-2{fill:#469146;}.cls-1{fill-rule:evenodd;}.cls-2{isolation:isolate;}</style></defs><path class="cls-1" d="M333.33,0a23.26,23.26,0,0,1,23.26,23.26v93c17,0,32.47.16,46.52.54V23.26a23.26,23.26,0,1,1,46.51,0v93a23.48,23.48,0,0,1-.27,3.58c31.2,3.83,52.82,11.77,69.26,28.21s24.38,38.06,28.21,69.26a23.48,23.48,0,0,1,3.58-.28h93a23.26,23.26,0,0,1,0,46.52H549.83c.39,14.05.52,29.49.56,46.52h93a23.26,23.26,0,1,1,0,46.51h-93c0,17-.15,32.47-.54,46.52h93.58a23.26,23.26,0,1,1,0,46.51h-93a23.48,23.48,0,0,1-3.58-.27C543,480.54,535,502.16,518.6,518.6S480.54,543,449.34,546.81a23.48,23.48,0,0,1,.27,3.58v93a23.26,23.26,0,1,1-46.51,0V549.83c-14.05.39-29.5.52-46.52.56v93a23.26,23.26,0,1,1-46.51,0v-93c-17,0-32.47-.15-46.52-.54v93.58a23.26,23.26,0,0,1-46.52,0v-93a23.48,23.48,0,0,1,.28-3.58C186.13,543,164.51,535,148.07,518.6s-24.38-38.06-28.21-69.26a23.48,23.48,0,0,1-3.58.27h-93a23.26,23.26,0,1,1,0-46.51h93.57c-.38-14.05-.52-29.5-.55-46.52h-93a23.26,23.26,0,1,1,0-46.51h93c0-17,.16-32.47.54-46.52H23.26a23.26,23.26,0,1,1,0-46.52h93a23.48,23.48,0,0,1,3.58.28c3.83-31.2,11.77-52.82,28.21-69.26s38.06-24.38,69.26-28.21a23.48,23.48,0,0,1-.28-3.58v-93a23.26,23.26,0,1,1,46.52,0v93.57c14.05-.38,29.49-.52,46.52-.55v-93A23.25,23.25,0,0,1,333.33,0ZM300.79,186.05c-20.61,0-38.37,0-52.6,1.91-15.24,2-29.86,6.67-41.71,18.52S190,233,188,248.19c-1.92,14.23-1.91,32-1.91,52.6v65.08c0,20.62,0,38.38,1.91,52.61,2,15.24,6.67,29.85,18.52,41.71s26.47,16.47,41.71,18.52c14.23,1.91,32,1.91,52.6,1.91h65.08c20.62,0,38.38,0,52.61-1.91,15.24-2,29.85-6.67,41.71-18.52s16.47-26.47,18.52-41.71c1.91-14.23,1.91-32,1.91-52.61V300.79c0-20.61,0-38.37-1.91-52.6-2-15.24-6.67-29.86-18.52-41.71S433.72,190,418.48,188c-14.23-1.92-32-1.91-52.61-1.91Z"/><path class="cls-2" d="M239.37,239.37c1.77-1.77,4.93-4,15-5.32,10.75-1.44,25.35-1.49,47.94-1.49h62c22.58,0,37.18.05,47.94,1.49,10.09,1.36,13.25,3.55,15,5.32s4,4.93,5.31,15c1.45,10.76,1.5,25.35,1.5,47.94v62c0,22.58-.05,37.18-1.5,47.94-1.35,10.09-3.54,13.25-5.31,15s-4.93,4-15,5.31c-10.76,1.45-25.36,1.5-47.94,1.5h-62c-22.59,0-37.19-.05-47.94-1.5-10.09-1.35-13.25-3.54-15-5.31s-4-4.93-5.32-15c-1.44-10.76-1.49-25.36-1.49-47.94v-62c0-22.59.05-37.18,1.49-47.94C235.41,244.3,237.6,241.14,239.37,239.37Z"/></svg>