<svg id="Layer_1" data-name="Layer 1" xmlns="http://www.w3.org/2000/svg" viewBox="0 0 800 800"><defs><style>.cls-1{fill-rule:evenodd;}</style></defs><g id="Page-1"><g id="Icon-Set-Filled"><path id="arrow-up-square" class="cls-1" d="M563.37,388.37a25,25,0,0,1-35.35,0l-103-103V550a25,25,0,0,1-50,0V285.35l-103,103A25,25,0,0,1,236.63,353L378,211.63c6-6,14.21-7.88,22-6.5,7.77-1.38,16,.49,22,6.5L563.37,353a25,25,0,0,1,0,35.35ZM700,0H100A100,100,0,0,0,0,100V700A100,100,0,0,0,100,800H700A100,100,0,0,0,800,700V100A100,100,0,0,0,700,0Z"/></g></g></svg>